PathFileType	4	(X/Y/Z)	0_coords_data.trc
DataRate	CameraRate	NumFrames	NumMarkers	Units	OrigDataRate	OrigDataStartFrame	OrigNumFrames
30.0	30.0	9	21	m	30.0	42	72
Frame#	Time	THUMB_TIP	THUMB_IP	THUMB_MCP	THUMB_CMC	INDEX_TIP	INDEX_DIP	INDEX_PIP	INDEX_MCP	MIDDLE_TIP	MIDDLE_DIP	MIDDLE_PIP	MIDDLE_MCP	RING_TIP	RING_DIP	RING_PIP	RING_MCP	PINKY_TIP	PINKY_DIP	PINKY_PIP	PINKY_MCP	WRIST
X1	Y1	Z1	X2	Y2	Z2	X3	Y3	Z3	X4	Y4	Z4	X5	Y5	Z5	X6	Y6	Z6	X7	Y7	Z7	X8	Y8	Z8	X9	Y9	Z9	X10	Y10	Z10	X11	Y11	Z11	X12	Y12	Z12	X13	Y13	Z13	X14	Y14	Z14	X15	Y15	Z15	X16	Y16	Z16	X17	Y17	Z17	X18	Y18	Z18	X19	Y19	Z19	X20	Y20	Z20	X21	Y21	Z21
40	1.3666666666666607	0.5321597198624975	0.018764399583798497	-0.14208198345627204	0.5217124958206091	0.013556622811902286	-0.12228969781482357	0.49382924530908556	0.01072136106506627	-0.10875065679492285	0.4743993648200106	-0.008368310305468363	-0.07342426168948857	0.5766536020542381	0.07811533148857797	-0.11290937843467902	0.5612740798993395	0.07140333048223468	-0.10609620437424067	0.5401017651084299	0.06155187951789587	-0.09678535944524214	0.5060448464372057	0.04477010128214298	-0.07749457657186887	0.5914185808456294	0.03843001679963476	-0.10351457498368449	0.5798631237837399	0.044330406761548535	-0.09087903738577535	0.5573691027935267	0.05012014518647512	-0.07327484758156178	0.5169904886563415	0.036990361775040004	-0.0593707392344181	0.591881525512743	0.022843982784179206	-0.08078724299386719	0.5834328997057685	0.03047849293999083	-0.0668110140083884	0.5651605837961018	0.037205729439261814	-0.05128533401103519	0.5273495073927612	0.02343416716901081	-0.04736265535259926	0.6013236723376061	0.016576354994410236	-0.03791072261286921	0.5847167959005304	0.013955229238465372	-0.03469492492408022	0.5639145790248242	0.012310770149513539	-0.03237640247198853	0.5288438785836063	0.005403015407096867	-0.03719432173044229	0.4622830810018609	-0.023011742144276925	-0.051989820119430985
41	1.3999999999999937	0.5389060927905576	0.023101581189435394	-0.13380189217669908	0.526380969966186	0.01672902639514573	-0.11562190747846068	0.4972180724427093	0.012506258131637304	-0.10559625856041538	0.47637367880289216	-0.007993774909759943	-0.0719042728799903	0.5790433256250216	0.08257042477575494	-0.0995134687195332	0.5632116499230537	0.0753938321070371	-0.09442873056157236	0.5414433529711216	0.06479191127517037	-0.08766482965400896	0.5060787212485627	0.04635521631819739	-0.07272939540550755	0.5947568957396234	0.04564863423441479	-0.08851176099769409	0.5812179700834896	0.050319831982195695	-0.07742675293821083	0.5563080987151976	0.054132371548418434	-0.06278529124645565	0.5152986884144626	0.038908058372355114	-0.053697030901201814	0.5942819646837598	0.029780957539084607	-0.06565924908523174	0.5829990612320205	0.03612207617336438	-0.053109894354221865	0.5622244801228979	0.04110934027865254	-0.040314428146045134	0.5248522857051724	0.025687731796966817	-0.040776932460970916	0.5980989625371379	0.019636455009458986	-0.02608910750403337	0.5813611017029147	0.016936239422759236	-0.023732658803229834	0.5604737391709831	0.01507421195716141	-0.02270165968731197	0.526151255696167	0.007365879417514876	-0.03066609240905732	0.4622830810018609	-0.023011742144276925	-0.051989820119430985
42	1.4333333333333271	0.5455975066634884	0.02722076191410705	-0.12386922433678915	0.5310106380396398	0.019788989681041258	-0.10774495612931961	0.5010034779242233	0.014117869926042692	-0.10172592443541545	0.4784354315853823	-0.00772983423494078	-0.07005178502576337	0.5802175161202785	0.0870277143874697	-0.0846453437399704	0.5641229648518383	0.07932860220649562	-0.08153261325174549	0.5420502482938178	0.06795321845496716	-0.07760760863330879	0.505881073183209	0.04779774789313618	-0.06764849862039696	0.5963683278332991	0.05334700516305313	-0.07113103365268625	0.58093867521259	0.05657264118619487	-0.062213573686392354	0.5539466271358643	0.05814249661534354	-0.05133357163881419	0.5129658683703557	0.04071272480011512	-0.04773796508744366	0.5945794752043136	0.03734483388419407	-0.048116696656318125	0.5805400570284771	0.042070667218524926	-0.03784239684659291	0.5576216822940183	0.04505266321575574	-0.02856684950945848	0.5214196656397863	0.027839773178459093	-0.03384427698225728	0.59308302425643	0.02327946941850212	-0.01245725694515637	0.5762509568538283	0.020361200541311186	-0.01137780629103119	0.5553921476620094	0.01808128685387489	-0.01210174805466202	0.5224000571432845	0.009305366613986621	-0.023737410397106973	0.4622830810018609	-0.023011742144276925	-0.051989820119430985
43	1.4666666666666603	0.5516909704664329	0.031157533412344174	-0.11232006496727431	0.5352160196519463	0.022753554069470883	-0.09868374849746442	0.5049646552465812	0.015617079792141664	-0.09702673718101817	0.48050374946731456	-0.007550880190430154	-0.06778977908507755	0.5795099004341928	0.09153654167066028	-0.06888050216648817	0.5634363452645552	0.0832462182222371	-0.06792584970137722	0.5414729925755123	0.07104881552006914	-0.06700697050482496	0.5052431755396183	0.04913390450736277	-0.062449215920514445	0.5952669715091135	0.061598797154728824	-0.05193502424610841	0.5782827649746238	0.06309555181575921	-0.045827941973984765	0.5498606370623135	0.06218568826315074	-0.039443245955230244	0.5098677705548815	0.042413675569411446	-0.04184866973438761	0.591769159727671	0.045386501133520385	-0.028830208676375257	0.5754652129110802	0.04814811586832035	-0.021650041390140318	0.5510863093452659	0.04888408851554937	-0.016619396879616888	0.5169032422012758	0.029909776209793737	-0.026925425559623295	0.5857841916240767	0.027362303182406178	0.0023294864594874953	0.5689898670486679	0.02410723276044069	0.0017335178329089262	0.5483939211886824	0.02123865344141307	-0.0011630811767895932	0.5174570992884374	0.011214820723995267	-0.01676177597365497	0.4622830810018609	-0.023011742144276925	-0.051989820119430985
44	1.4999999999999936	0.5567475718769378	0.03475721991520253	-0.09953018714869616	0.5387224860352392	0.02545457436571752	-0.08873402736013969	0.5089254871997495	0.016889841129664185	-0.09149159966074522	0.4824441113592132	-0.007449988653571826	-0.06510600852248632	0.5766003589934575	0.09602527467376054	-0.05302314796522911	0.5609051149706027	0.08708209848233806	-0.05431887736298674	0.5395548236012175	0.07398064148654526	-0.05644648541658859	0.5041598881922205	0.05031739335559349	-0.05738740479992421	0.5907230396125793	0.07000403733790328	-0.03211871901374985	0.5728402909669348	0.06959398875132317	-0.02928337758222116	0.5439467036039427	0.0660526101994372	-0.02785901904260285	0.5060316781202274	0.04397813423413932	-0.03630391539642008	0.5851556804650564	0.05360358881505034	-0.009102539080583283	0.5674604527276004	0.05412153152115706	-0.005695098593536785	0.5426112913754305	0.05253269755610812	-0.005277048685831953	0.5113740179802871	0.031840667186993854	-0.020468936785759895	0.5759234795212018	0.03187084508297755	0.017252343042802654	0.5594198411973184	0.02813534487767433	0.014668555069569156	0.5394449650649051	0.024509329247385914	0.009314271443942423	0.5113383358918638	0.013083304986082012	-0.010188210888038784	0.4622830810018609	-0.023011742144276925	-0.051989820119430985
45	1.5333333333333266	0.5603255110883062	0.037911866703750685	-0.08618488821770409	0.541198211577869	0.027820577098046972	-0.07841878961339566	0.5125569087663512	0.017820024277684365	-0.08538188637748578	0.4841163806120738	-0.007475274252168318	-0.06211873460066519	0.5716106858051241	0.10022187780204017	-0.03798194638579455	0.5566656826766088	0.09061008239588497	-0.04148341330108618	0.5363938417478761	0.07662143711627101	-0.04652128007198175	0.502709552488515	0.05131917431278832	-0.05275026458915577	0.5827149838614846	0.07797152469554658	-0.013324986978740738	0.5647627240719644	0.07564858799119967	-0.013890967117235475	0.536476124743592	0.06957633660540041	-0.017413127185117727	0.5016278560945996	0.04536788783343604	-0.03140230518894782	0.5748252384782677	0.061464360429729914	0.009258492111665906	0.5568872499827167	0.05972838079964948	0.00879487216232444	0.5326480213216158	0.055822181842692276	0.004625773623846918	0.5050802404998292	0.03358184676255749	-0.014870528335377609	0.5637576486673208	0.036583158529585935	0.03108512873347824	0.5478840553481359	0.03223614619887438	0.02638060761717209	0.5289589727140448	0.027725829300331517	0.01848691977386724	0.5043125602907067	0.01484232904184457	-0.004479430104776971	0.4622830810018609	-0.023011742144276925	-0.051989820119430985
46	1.5666666666666598	0.5622429867294623	0.040733540684106284	-0.07269049402915656	0.5425333291205736	0.02988211218432202	-0.06802402893719994	0.5156346496189881	0.01851101991222881	-0.07879339760999238	0.48539693359574576	-0.007563433798890795	-0.05890135414119707	0.5647628127607569	0.10410598581608299	-0.024401200622954533	0.5509152803232912	0.09383698242886085	-0.02995038207849865	0.53216231465957	0.07896166297372897	-0.03763549645130204	0.5009213992683488	0.05219346990602636	-0.04864027447763042	0.57184319472465	0.08513632667869497	0.0032143930237701346	0.5546032701653517	0.08106103115238572	-0.0005508383851808296	0.5278758907885555	0.07269894949341005	-0.008621298841525848	0.4968277870785151	0.04662401770273705	-0.027389919172342125	0.5615684146548968	0.06854765401714169	0.024966795950950582	0.5444027948121445	0.06478311070348208	0.020945638275145007	0.5217144800253404	0.058745688372401905	0.012640827456645687	0.49828639035815186	0.035159576639221424	-0.010370925667705866	0.5497947462559637	0.041283802557714466	0.042970854021327776	0.5349167421046315	0.036270939680207226	0.0361505755633576	0.517429636050183	0.030860209412195028	0.025867719014358914	0.4967046118306967	0.016482421158528937	8.718319691608523e-05	0.4622830810018609	-0.023011742144276925	-0.051989820119430985
47	1.599999999999993	0.5626581914357323	0.042932330968298515	-0.05964011831150062	0.5428263810958518	0.03144282419226041	-0.05799983398054326	0.518114013359631	0.018792474890788502	-0.07207419163624273	0.4862701840295394	-0.007786025683142239	-0.05565944701935771	0.5566731535556	0.10758489327937926	-0.012909255401401809	0.5441845644739287	0.09669074780125453	-0.020213551195701007	0.5272552299375033	0.08099457415744937	-0.030165314762894135	0.4989854769747548	0.05293004214881525	-0.04522649680686147	0.5592939486761727	0.09130005052962109	0.01667853036606598	0.5433408041374538	0.08571055589112242	0.010178166606018613	0.5188500337859626	0.07536732816661218	-0.0017645867544694438	0.4919962594059798	0.047699498669262264	-0.02433700207615258	0.5467687329912116	0.07461741850239223	0.03730541970080947	0.5310770518447024	0.06913743558921925	0.030323949220486646	0.510600212173847	0.06124772423325897	0.018549762589822272	0.4914282030489431	0.03651465507886542	-0.007051608278132948	0.5349515401448889	0.045640303282054484	0.052390336915360325	0.5213617507052847	0.03999019694105743	0.04364997529111131	0.5056485564546833	0.03369170243838515	0.03123077594321949	0.48898161379573346	0.017919536441763584	0.003403895895713327	0.4622830810018609	-0.023011742144276925	-0.051989820119430985
48	1.6333333333333262	0.5618000549516631	0.044425796623796976	-0.04787298571356108	0.542243481851475	0.03241053585020859	-0.048956478731381314	0.5199015002716983	0.018693256096762756	-0.06573420489599091	0.4867147458494434	-0.008065479048255275	-0.05260030127384868	0.5481173956230756	0.11064701617825179	-0.003913177689356839	0.5371022181428838	0.09918821765365848	-0.012594295212617124	0.5221512098280058	0.08274084012695737	-0.024339973390679503	0.4970524099156031	0.0535519031847409	-0.04255239489745588	0.5462646104448757	0.09650383059533318	0.026802073804580995	0.5319223148948284	0.08964519709852725	0.0181269539257789	0.5100310147477113	0.07762521248414744	0.003103622146879037	0.4873993702993168	0.048634099403967346	-0.022263126815762202	0.5317041892172211	0.07972259292133876	0.0462307077710255	0.5178742988278903	0.07282669022655597	0.03694735396740556	0.49996217255181874	0.0633485086628297	0.022473246550534842	0.48491394315563774	0.03766054489238713	-0.004883656479017673	0.5201818973377654	0.04953946568992673	0.059192648289381256	0.5080825452014478	0.04329324396223533	0.0488200694388784	0.4943218591681649	0.03615459150222333	0.03466043738332769	0.4816439821922332	0.019174378639952083	0.0054743575243417775	0.4622830810018609	-0.023011742144276925	-0.051989820119430985
